<?xml version="1.0" encoding="iso-8859-1"?>
<!-- Generator: Adobe Illustrator 19.0.0, SVG Export Plug-In . SVG Version: 6.00 Build 0)  -->
<svg version="1.1" id="Capa_1" xmlns="http://www.w3.org/2000/svg" xmlns:xlink="http://www.w3.org/1999/xlink" x="0px" y="0px"
	 viewBox="0 0 512 512" style="enable-background:new 0 0 512 512;" xml:space="preserve">
<style type="text/css">
	.st0{fill:url(#SVGID_1_);}
	.st1{fill:url(#SVGID_2_);}
</style>
<linearGradient id="SVGID_1_" gradientUnits="userSpaceOnUse" x1="480.2302" y1="128.2252" x2="-1.280882e-04" y2="128.2252">
	<stop  offset="0" style="stop-color:#13C0EB"/>
	<stop  offset="1" style="stop-color:#80D41E"/>
</linearGradient>
<g>
	<g>
		<path class="st0"  d="M511.888,279.621c-0.182-3.186-2.359-5.907-5.427-6.784l-112.132-32.064c-1.348-0.386-2.775-0.386-4.123,0
			l-112.132,32.064c-3.063,0.876-5.239,3.591-5.426,6.772c-0.079,1.358-1.798,33.743,11.568,74.601
			c12.354,37.765,40.5,90.076,104.427,124.812c1.116,0.606,2.348,0.91,3.581,0.91c1.173,0,2.348-0.275,3.423-0.827
			c64.085-32.867,92.291-85.336,104.667-123.565C513.682,314.253,511.968,281.015,511.888,279.621z M486.045,350.92
			c-7.333,22.65-18.018,43.168-31.756,60.986c-16.383,21.247-37.213,38.727-61.965,52.006
			c-45.776-25.888-77.279-64.159-93.669-113.811c-9.587-29.045-10.985-53.938-11.096-64.374l104.708-29.941l104.717,29.944
			C496.898,296.271,495.561,321.525,486.045,350.92z"/>
	</g>
</g>
<g>
	<g>
		<path class="st0"  d="M473.35,296.717l-79.02-22.597c-1.348-0.386-2.776-0.386-4.124,0l-79.016,22.596c-3.535,1.011-5.816,4.435-5.388,8.085
			c3.896,33.172,19.813,95.049,82.661,136.737c1.255,0.833,2.7,1.25,4.146,1.25c1.403,0,2.808-0.393,4.04-1.181
			c62.393-39.889,78.214-102.849,82.091-136.828C479.156,301.135,476.877,297.726,473.35,296.717z M392.68,426.255
			c-50.794-35.721-66.419-86.068-71.128-116.901l70.716-20.222l70.746,20.231C458.367,340.853,442.931,391.994,392.68,426.255z"/>
	</g>
</g>
<g>
	<g>
		<path class="st0"  d="M368.22,32.068H31.549C14.152,32.068,0,46.22,0,63.616v224.448c0,17.396,14.152,31.547,31.549,31.547h216.433
			c4.143,0,7.5-3.358,7.5-7.5c0-4.142-3.358-7.5-7.501-7.5H31.549c-9.125,0-16.549-7.423-16.549-16.548V63.616
			c0-9.125,7.424-16.548,16.549-16.548H368.22c9.125,0,16.549,7.423,16.549,16.548v152.303c0,4.142,3.357,7.5,7.5,7.5
			s7.5-3.358,7.5-7.5V63.616C399.769,46.22,385.617,32.068,368.22,32.068z"/>
	</g>
</g>
<g>
	<g>
		<path class="st0"  d="M103.691,120.244H71.628c-12.976,0-23.532,10.557-23.532,23.532v16.033c0,12.975,10.556,23.532,23.532,23.532h32.063
			c12.976,0,23.532-10.557,23.532-23.532v-16.033C127.223,130.8,116.666,120.244,103.691,120.244z M80.16,168.34h-8.532
			c-4.705,0-8.532-3.828-8.532-8.532v-16.033c0-4.705,3.827-8.532,8.532-8.532h8.532V168.34z M112.224,159.808
			c0,4.705-3.827,8.532-8.532,8.532h-8.532v-33.096h8.532c4.704,0,8.532,3.827,8.532,8.532V159.808z"/>
	</g>
</g>
<g>
	<g>
		<path class="st0"  d="M103.692,208.42H55.596c-4.143,0-7.5,3.358-7.5,7.5c0,4.142,3.357,7.5,7.5,7.5h48.096c4.143,0,7.5-3.358,7.5-7.5
			C111.192,211.778,107.835,208.42,103.692,208.42z"/>
	</g>
</g>
<g>
	<g>
		<path class="st0"  d="M183.851,208.42h-48.096c-4.143,0-7.5,3.358-7.5,7.5c0,4.142,3.357,7.5,7.5,7.5h48.096c4.143,0,7.5-3.358,7.5-7.5
			C191.351,211.778,187.994,208.42,183.851,208.42z"/>
	</g>
</g>
<g>
	<g>
		<path class="st0"  d="M215.916,248.5H55.596c-4.143,0-7.5,3.358-7.5,7.5s3.357,7.5,7.5,7.5h160.32c4.143,0,7.5-3.358,7.5-7.5
			S220.059,248.5,215.916,248.5z"/>
	</g>
</g>
<g>
	<g>
		<path class="st0"  d="M264.013,208.42h-48.097c-4.143,0-7.5,3.358-7.5,7.5c0,4.142,3.357,7.5,7.5,7.5h48.097c4.143,0,7.5-3.358,7.5-7.5
			C271.513,211.778,268.155,208.42,264.013,208.42z"/>
	</g>
</g>
<g>
	<g>
		<path class="st0"  d="M344.173,208.42h-48.096c-4.143,0-7.5,3.358-7.5,7.5c0,4.142,3.357,7.5,7.5,7.5h48.096c4.143,0,7.5-3.358,7.5-7.5
			C351.672,211.778,348.316,208.42,344.173,208.42z"/>
	</g>
</g>
<g>
	<g>
		<path class="st0"  d="M312.108,80.163c-13.182,0-24.871,6.486-32.065,16.428c-7.194-9.942-18.883-16.428-32.065-16.428
			c-21.816,0-39.563,17.749-39.563,39.563c0,21.816,17.748,39.564,39.563,39.564c13.182,0,24.871-6.486,32.065-16.428
			c7.194,9.942,18.883,16.428,32.065,16.428c21.816,0,39.563-17.749,39.563-39.564C351.673,97.912,333.925,80.163,312.108,80.163z
			 M247.979,144.292c-13.545,0-24.564-11.02-24.564-24.565c0-13.545,11.02-24.564,24.564-24.564
			c13.546,0,24.565,11.02,24.565,24.564C272.544,133.271,261.525,144.292,247.979,144.292z M312.108,144.292
			c-13.545,0-24.564-11.02-24.564-24.565c0-13.545,11.02-24.564,24.564-24.564c13.544,0,24.564,11.02,24.564,24.564
			C336.672,133.271,325.653,144.292,312.108,144.292z"/>
	</g>
</g>
</svg>
